<?xml version="1.0" standalone="no"?>
<!DOCTYPE svg PUBLIC "-//W3C//DTD SVG 20010904//EN"
 "http://www.w3.org/TR/2001/REC-SVG-20010904/DTD/svg10.dtd">
<svg version="1.0" xmlns="http://www.w3.org/2000/svg"
 width="750.000000pt" height="130.000000pt" viewBox="0 0 750.000000 130.000000"
 preserveAspectRatio="xMidYMid meet">
<g transform="translate(0.000000,130.000000) scale(0.100000,-0.100000)"
fill="#fff">
<path d="M365 1289 c-178 -23 -260 -84 -309 -232 -21 -63 -34 -187 -46 -454
-8 -184 -8 -234 5 -298 24 -129 74 -215 159 -276 51 -38 96 -38 161 1 103 61
99 54 105 214 l5 141 225 5 c235 5 258 10 281 52 15 29 15 105 0 152 -26 75
-123 92 -417 72 -129 -9 -132 -8 -154 14 -22 22 -23 27 -16 139 8 129 15 144
75 161 20 5 113 10 207 10 l172 0 58 -30 c69 -37 128 -47 178 -30 47 15 66 44
66 102 0 89 -28 124 -152 188 -121 63 -203 80 -382 79 -83 -1 -182 -6 -221
-10z"/>
<path d="M3860 863 c-26 -9 -71 -57 -90 -94 -11 -20 -35 -99 -54 -175 -19 -77
-49 -166 -66 -199 -31 -62 -48 -153 -36 -199 9 -37 39 -49 99 -41 47 7 57 13
117 75 67 71 91 82 193 96 81 11 91 4 141 -100 24 -52 50 -97 57 -102 25 -15
101 -8 115 11 21 28 17 54 -16 120 -41 83 -39 107 19 168 25 28 25 29 7 43
-11 7 -36 16 -55 19 -91 15 -88 11 -259 283 -57 90 -108 118 -172 95z m102
-260 c20 -27 46 -64 57 -84 19 -32 20 -38 6 -49 -18 -15 -110 -9 -128 9 -18
18 -16 149 3 161 22 14 23 14 62 -37z"/>
<path d="M7304 842 c-28 -16 -67 -41 -87 -56 -67 -51 -128 -170 -147 -288 -11
-70 -29 -91 -69 -81 -38 9 -80 47 -134 122 -60 83 -71 91 -124 91 -33 0 -45
-5 -53 -21 -23 -41 6 -131 72 -227 17 -24 26 -48 22 -52 -12 -11 -166 -50
-199 -50 -73 0 -97 48 -123 251 -12 85 -26 167 -31 182 -13 35 -52 58 -105 64
-38 5 -48 2 -70 -20 -34 -34 -33 -54 8 -135 18 -37 48 -127 66 -202 39 -159
46 -175 99 -223 68 -61 128 -62 331 -2 64 19 123 35 131 35 7 0 49 -19 92 -41
90 -47 125 -48 182 -5 39 30 52 74 66 229 12 137 32 181 114 251 95 81 155
142 155 157 -1 32 -19 43 -82 46 -54 3 -70 0 -114 -25z"/>
<path d="M5055 789 c-185 -24 -427 -67 -492 -85 -55 -16 -68 -36 -56 -84 10
-42 23 -50 79 -50 86 0 153 -19 191 -54 27 -25 42 -57 82 -175 27 -79 58 -152
68 -163 25 -24 88 -39 119 -28 54 21 57 105 6 207 -29 58 -65 161 -77 220 -5
25 -2 34 17 47 37 26 143 53 296 75 179 26 237 54 202 96 -18 22 -256 18 -435
-6z"/>
<path d="M3049 745 c-27 -14 -33 -28 -99 -201 -39 -104 -81 -164 -115 -164
-35 0 -58 30 -132 170 -70 134 -92 164 -135 186 -41 21 -61 17 -110 -20 -78
-60 -81 -74 -76 -344 4 -218 6 -235 24 -249 26 -20 94 -10 116 17 9 11 22 46
28 78 18 90 25 107 47 110 16 2 36 -16 81 -76 72 -94 136 -131 179 -104 6 4
58 68 115 141 57 74 111 139 121 145 29 17 76 -47 109 -149 44 -136 87 -185
163 -185 53 0 91 24 105 64 13 41 4 63 -37 96 -84 65 -109 98 -138 181 -42
124 -97 240 -134 282 -36 41 -67 47 -112 22z"/>
<path d="M1567 729 c-105 -10 -222 -49 -265 -90 -29 -27 -31 -94 -3 -109 30
-16 51 -13 178 26 65 20 138 40 163 45 56 10 140 1 140 -15 0 -20 -62 -71
-140 -116 -116 -67 -217 -146 -246 -192 -37 -58 -42 -115 -14 -150 59 -75 296
-78 574 -7 43 11 136 26 206 33 83 8 136 18 152 28 30 20 43 73 28 112 -8 23
-15 26 -60 26 -28 0 -153 -20 -278 -45 -239 -48 -363 -58 -389 -32 -18 17 -21
14 137 107 68 40 145 93 172 117 118 111 117 241 -2 264 -55 10 -222 9 -353
-2z"/>
<path d="M5448 523 c-32 -37 -38 -64 -38 -168 0 -157 24 -195 125 -195 36 0
47 5 70 32 25 30 27 38 22 93 -8 88 -44 194 -77 227 -33 32 -79 37 -102 11z"/>
<path d="M1035 456 c-31 -31 -39 -79 -32 -186 9 -146 41 -188 131 -177 61 8
78 32 77 108 -1 78 -21 155 -55 214 -41 69 -80 82 -121 41z"/>
<path d="M5900 310 c-18 -18 -21 -30 -17 -58 8 -49 41 -80 93 -88 57 -8 90 1
110 31 14 22 14 26 -2 54 -26 43 -71 73 -119 79 -35 3 -47 0 -65 -18z"/>
</g>
</svg>
